HIERARCHY
ROOT Hips
{
	OFFSET -3.958830 18.904000 13.208200
	CHANNELS 6 Xposition Yposition Zposition Zrotation Yrotation Xrotation 
	JOINT LHipJoint
	{
		OFFSET 0.000000 0.000000 0.000000
		CHANNELS 3 Zrotation Yrotation Xrotation
		JOINT LeftUpLeg
		{
			OFFSET 1.800000 -1.400000 0.085000
			CHANNELS 3 Zrotation Yrotation Xrotation
			JOINT LeftLeg
			{
				OFFSET 2.215000 -6.000000 0.000000
				CHANNELS 3 Zrotation Yrotation Xrotation
				JOINT LeftFoot
				{
					OFFSET 2.500000 -6.900000 0.000000
					CHANNELS 3 Zrotation Yrotation Xrotation
					JOINT LeftToeBase
					{
						OFFSET 0.200000 -0.500000 1.950000
						CHANNELS 3 Zrotation Yrotation Xrotation
						End Site
						{
							OFFSET 0.000000 0.000000 0.000000
						}
					}
				}
			}
		}
	}
	JOINT RHipJoint
	{
		OFFSET 0.000000 0.000000 0.000000
		CHANNELS 3 Zrotation Yrotation Xrotation
		JOINT RightUpLeg
		{
			OFFSET -1.800000 -1.400000 0.085000
			CHANNELS 3 Zrotation Yrotation Xrotation
			JOINT RightLeg
			{
				OFFSET -2.215000 -6.000000 0.000000
				CHANNELS 3 Zrotation Yrotation Xrotation
				JOINT RightFoot
				{
					OFFSET -2.500000 -6.900000 0.000000
					CHANNELS 3 Zrotation Yrotation Xrotation
					JOINT RightToeBase
					{
						OFFSET -0.200000 -0.500000 1.950000
						CHANNELS 3 Zrotation Yrotation Xrotation
						End Site
						{
							OFFSET 0.000000 0.000000 0.000000
						}
					}
				}
			}
		}
	}
	JOINT LowerBack
	{
		OFFSET 0.000000 0.000000 0.000000
		CHANNELS 3 Zrotation Yrotation Xrotation
		JOINT Spine
		{
			OFFSET -0.087000 1.940000 -0.288900
			CHANNELS 3 Zrotation Yrotation Xrotation
			JOINT Spine1
			{
				OFFSET 0.000000 1.950000 0.060000
				CHANNELS 3 Zrotation Yrotation Xrotation
				JOINT Neck
				{
					OFFSET 0.000000 0.000000 0.000000
					CHANNELS 3 Zrotation Yrotation Xrotation
					JOINT Neck1
					{
						OFFSET 0.000000 1.600000 0.340000
						CHANNELS 3 Zrotation Yrotation Xrotation
						JOINT Head
						{
							OFFSET 0.000000 1.667000 -0.240000
							CHANNELS 3 Zrotation Yrotation Xrotation
							End Site
							{
								OFFSET 0.000000 0.000000 0.000000
							}
						}
					}
				}
				JOINT LeftShoulder
				{
					OFFSET 0.000000 0.000000 0.000000
					CHANNELS 3 Zrotation Yrotation Xrotation
					JOINT LeftArm
					{
						OFFSET 2.700000 1.550000 -0.730000
						CHANNELS 3 Zrotation Yrotation Xrotation
						JOINT LeftForeArm
						{
							OFFSET 5.450000 0.000000 0.000000
							CHANNELS 3 Zrotation Yrotation Xrotation
							JOINT LeftHand
							{
								OFFSET 3.450000 0.000000 0.000000
								CHANNELS 3 Zrotation Yrotation Xrotation
								JOINT LeftHandIndex1
								{
									OFFSET 0.750000 0.000000 0.000000
									CHANNELS 3 Zrotation Yrotation Xrotation
									End Site
									{
										OFFSET 0.000000 0.000000 0.000000
									}
								}
							}
						}
					}
				}
				JOINT RightShoulder
				{
					OFFSET 0.000000 0.000000 0.000000
					CHANNELS 3 Zrotation Yrotation Xrotation
					JOINT RightArm
					{
						OFFSET -2.700000 1.550000 -0.730000
						CHANNELS 3 Zrotation Yrotation Xrotation
						JOINT RightForeArm
						{
							OFFSET -5.450000 0.000000 0.000000
							CHANNELS 3 Zrotation Yrotation Xrotation
							JOINT RightHand
							{
								OFFSET -3.450000 0.000000 0.000000
								CHANNELS 3 Zrotation Yrotation Xrotation
								JOINT RightHandIndex1
								{
									OFFSET -0.750000 0.000000 0.000000
									CHANNELS 3 Zrotation Yrotation Xrotation
									End Site
									{
										OFFSET 0.000000 0.000000 0.000000
									}
								}
							}
						}
					}
				}
			}
		}
	}
}
MOTION
Frames: 9
Frame Time: 0.016667
0.463640 15.479630 -1.313680 -2.520392 -8.069377 -0.950469 -15.224298 12.464422 2.923659 11.745132 -3.726737 -24.258671 -5.157064 12.534913 43.130957 -0.246878 8.996152 1.571053 0.474090 -0.160810 0.192850 18.368985 -9.292739 4.231529 -22.550062 5.427478 -29.660200 34.997516 -20.271384 32.411544 -1.185989 -8.821433 1.684682 0.161040 0.599020 0.170410 -3.636818 -2.194051 -8.311140 8.141081 0.043802 14.512773 -3.319988 1.602444 3.724649 1.313937 -5.239804 -8.083210 -10.705056 4.997092 30.287037 -0.438830 -0.334030 -5.689710 -26.088873 -7.852162 1.380090 -39.545915 -7.820464 -3.129363 -25.909697 -43.653403 7.321341 -3.879595 3.059423 0.677820 0.353720 -0.398820 0.412610 23.381274 12.269282 6.559062 38.661736 4.661696 -6.461851 54.490164 59.417539 24.476610 1.607911 -1.789111 -0.523970 0.474980 0.107400 -0.392490 
0.451750 15.451860 -1.312000 -2.589502 -8.029833 -1.307690 -15.249932 12.419569 2.922555 12.059344 -3.737028 -24.440271 -4.904647 12.833519 44.326092 -0.199870 9.207600 1.491292 0.485190 -0.155420 0.215950 18.360372 -9.144505 4.364675 -24.158640 5.337659 -29.637766 37.665870 -21.186015 31.822511 -1.279562 -9.041786 1.614108 0.158100 0.568950 0.156170 -3.590532 -2.316246 -8.428130 7.846933 0.018220 15.117697 -2.990520 1.571740 3.270098 1.242616 -5.425477 -8.085998 -11.261305 5.392801 31.222020 -0.251180 -0.224650 -6.062960 -26.656751 -7.752435 1.332504 -39.555441 -7.122812 -3.360623 -24.405934 -41.112059 6.177271 -3.848074 3.022384 0.705680 0.322640 -0.378500 0.406620 24.122352 12.388617 6.536079 38.704563 4.599030 -6.574009 55.656251 58.916905 24.809704 1.630254 -1.773591 -0.525860 0.476800 0.095770 -0.403270 
0.435370 15.403450 -1.306990 -2.885980 -8.484985 -2.634418 -15.282248 12.430752 2.879175 12.951128 -3.395777 -23.861718 -4.607763 13.531418 46.273696 -0.092229 9.571489 1.346885 0.536630 -0.109880 0.294360 18.336289 -8.907117 4.622128 -26.825476 5.501285 -29.294789 42.612620 -22.843694 31.051998 -1.494003 -9.400988 1.505974 0.151740 0.470420 0.133610 -3.505036 -2.579921 -8.673888 7.627783 -0.009328 17.128206 -2.754307 1.669823 2.321747 1.346137 -5.805812 -8.400535 -12.669103 6.395400 34.199506 0.049390 0.211530 -7.907360 -27.953682 -7.936098 1.352765 -39.144941 -5.564327 -3.839963 -21.576349 -35.894451 4.159999 -3.746445 2.938564 0.791140 0.228790 -0.291690 0.398510 25.254365 13.058951 6.792839 38.780380 4.195508 -7.083519 58.851041 58.711248 26.216128 1.689387 -1.724415 -0.507930 0.479390 0.049590 -0.427260 
0.406240 15.347090 -1.282170 -3.447487 -9.361382 -3.595849 -15.310029 12.340659 2.853948 14.731168 -2.699416 -23.554951 -4.901078 14.847063 48.168396 0.001361 10.147531 1.140114 0.526280 -0.142650 0.327700 18.341238 -8.643332 4.883120 -29.677676 5.882894 -29.309037 48.202676 -24.625080 30.138204 -1.680426 -9.759244 1.407797 0.129900 0.438410 0.119530 -3.479417 -2.693208 -8.899318 7.789047 0.173553 18.299045 -2.820091 1.959441 1.385099 1.489585 -5.859293 -8.514322 -13.336074 7.062184 36.883507 -0.081260 0.431540 -8.869060 -29.450482 -7.859719 1.246967 -38.564970 -3.929961 -3.693062 -18.153739 -28.808493 2.089020 -3.732425 2.801397 0.866930 0.187470 -0.251940 0.375000 26.442500 13.198495 6.841839 39.474661 3.857346 -7.434266 61.691216 58.333271 27.399810 1.713620 -1.653497 -0.534120 0.511600 0.062680 -0.457600 
0.382060 15.311220 -1.253620 -3.986414 -9.893458 -4.721175 -15.303138 12.367871 2.758267 15.754495 -1.941446 -22.926435 -3.986394 15.297971 49.804956 0.022115 10.472538 1.002992 0.508040 -0.192600 0.342880 18.352112 -8.500974 5.094293 -32.532649 6.127954 -28.006870 54.039745 -25.311749 27.533520 -1.792543 -9.833045 1.378859 0.103620 0.405510 0.108770 -3.504393 -2.796375 -9.050068 8.512333 0.259171 19.403970 -3.007032 2.220582 0.532133 1.601574 -6.222325 -8.952298 -14.796179 8.201339 40.152618 0.491880 0.339230 -9.807620 -30.753595 -7.911410 1.428247 -38.441129 -1.800099 -3.562023 -14.863521 -22.659766 0.523968 -3.714092 2.681364 0.958120 0.136190 -0.218660 0.340830 27.493035 13.694128 7.041959 39.589911 3.528410 -7.648230 64.702482 57.434275 28.490573 1.726668 -1.582851 -0.565350 0.535890 0.099440 -0.491550 
0.364160 15.297490 -1.221560 -4.283949 -10.235072 -5.811028 -15.243547 12.397422 2.650566 16.211456 -1.197190 -22.223419 -2.916265 15.464716 51.178637 0.055172 10.672882 0.908063 0.501350 -0.222400 0.361170 18.397762 -8.490855 5.249313 -35.209318 6.319842 -25.687933 58.591581 -24.432412 23.838352 -1.819089 -9.661973 1.408742 0.078910 0.364140 0.113420 -3.652040 -2.701045 -9.138526 9.761240 0.184648 20.026398 -4.269789 2.351559 -0.094669 1.887825 -6.296830 -9.576347 -15.704846 9.225181 43.995244 0.863720 0.251010 -9.864260 -32.573028 -8.487612 1.911212 -37.134808 0.821196 -2.983505 -11.624412 -15.280361 -0.677064 -3.700332 2.594182 1.017620 0.094680 -0.183940 0.309780 28.615677 14.427535 7.271330 40.314942 3.512715 -7.620459 67.650993 56.176389 29.290476 1.745597 -1.545607 -0.566120 0.528450 0.121300 -0.513490 
0.329460 15.303780 -1.197130 -4.483068 -9.808540 -6.394162 -15.204797 12.461178 2.526694 16.330762 -0.585088 -21.966107 -1.520417 14.963565 51.500016 0.060374 10.564079 0.936417 0.507000 -0.216530 0.374550 18.420226 -8.495054 5.379821 -37.194637 6.472526 -23.170004 61.496615 -22.525606 19.938600 -1.797432 -9.389419 1.479991 0.066520 0.339070 0.109950 -3.729623 -2.653427 -9.185429 10.278725 0.187276 20.182565 -4.883643 2.386023 -0.568737 1.993284 -6.348754 -10.095019 -16.262135 9.869051 46.478428 1.035750 0.214030 -9.325500 -34.535766 -9.069945 2.447047 -35.719258 3.069369 -2.087946 -8.346624 -8.468921 -1.330577 -3.698957 2.530079 1.026830 0.071020 -0.161500 0.304040 30.334276 15.177326 7.454026 40.130453 3.598254 -7.250254 70.491347 55.567244 30.541445 1.769929 -1.547697 -0.548610 0.520230 0.111980 -0.510280 
0.278590 15.311740 -1.185480 -4.761841 -8.894043 -6.412113 -15.164997 12.462588 2.397868 16.428116 0.050823 -22.356082 0.018251 14.202133 51.277521 0.070099 10.286617 1.012586 0.537820 -0.155660 0.361620 18.455182 -8.517589 5.498305 -38.368580 6.738523 -20.758170 62.796374 -19.890666 16.016135 -1.745420 -9.074758 1.564501 0.073430 0.313090 0.118550 -3.832418 -2.470816 -9.187699 10.582087 0.360349 19.715658 -5.262321 2.460987 -0.579102 1.940359 -6.376868 -10.312950 -16.279956 10.126848 47.664012 1.797380 -0.161110 -8.441430 -35.355862 -8.981847 2.824882 -35.144426 4.876762 -1.231891 -5.360642 -2.179373 -1.531123 -3.715500 2.535684 0.985170 0.056000 -0.144760 0.323100 31.215333 15.339295 7.346862 40.195378 4.242266 -6.336198 75.261180 55.754685 33.512184 1.824512 -1.594496 -0.488480 0.475930 0.077860 -0.474670 
0.206540 15.326910 -1.178270 -4.688452 -7.768919 -5.855995 -15.169232 12.420269 2.263427 16.205511 0.554504 -23.030429 1.271840 13.346582 50.202664 -0.009940 9.963750 1.128264 0.512220 -0.198340 0.341560 18.461447 -8.544636 5.584318 -38.924544 6.900825 -18.780433 62.328639 -17.169913 12.516627 -1.639892 -8.761800 1.653751 0.058460 0.352030 0.126540 -3.834099 -2.238736 -9.128546 9.636091 1.087487 18.406037 -4.787028 2.833692 -0.125706 1.682105 -6.365223 -9.993063 -15.648463 9.795390 47.001762 2.067400 -0.479060 -7.503110 -34.374154 -7.823673 2.747223 -35.587724 5.709451 -0.763238 -2.630289 2.010530 -1.451702 -3.813628 2.500890 0.964860 0.081620 -0.175030 0.326940 30.801314 14.576768 6.972845 41.274103 5.231792 -5.163065 80.368199 56.565451 37.374755 1.872782 -1.581707 -0.500490 0.476830 0.092310 -0.467320 
